<?xml version="1.0" encoding="UTF-8"?>
<svg id="Layer_2" data-name="Layer 2" xmlns="http://www.w3.org/2000/svg" viewBox="0 0 195.23 219.63">
  <defs>
    <style>
      .cls-1 {
        fill: #ff3c30;
      }
    </style>
  </defs>
  <g>
    <g>
      <path class="cls-1" d="M67.17,27.52l-14.15-14.55,4.25-1.78,10.53,11.34-.85-15.39,4.25-1.78.64,20.21-4.67,1.96Z"/>
      <path class="cls-1" d="M85.08,21.62l-3.8-18.48,3.96-.8,3.8,18.48-3.96.8Z"/>
      <path class="cls-1" d="M98.33,13.67c1.4,1.33,3.52,2.4,6.14,2.29,2.22-.09,3.26-1.18,3.21-2.26-.06-1.41-1.73-1.83-3.94-2.24-3.13-.58-7.15-1.26-7.33-5.47-.13-3.14,2.49-5.79,6.96-5.98,3.02-.13,5.56.67,7.51,2.32l-2.12,3.03c-1.6-1.35-3.67-1.91-5.52-1.84-1.82.08-2.76.91-2.71,2.04.05,1.27,1.66,1.6,3.88,2.02,3.16.58,7.18,1.34,7.36,5.53.15,3.45-2.22,6.15-7.34,6.36-3.64.15-6.31-.95-8.18-2.66l2.09-3.14Z"/>
      <path class="cls-1" d="M119.68,19.51l2.11-18.75,4.02.45-2.11,18.75-4.02-.45Z"/>
      <path class="cls-1" d="M136.51,22.42l4.22-14.75-5.34-1.51.97-3.4,14.58,4.11-.97,3.4-5.32-1.5-4.22,14.75-3.92-1.1Z"/>
    </g>
    <g>
      <g>
        <path class="cls-1" d="M193.21,56.22c-.71-.17-1.45-.05-2.08.33-.63.38-1.1.98-1.28,1.69-1.65,6-4.63,9.97-8.41,11.18-2.91.93-4.85-.15-5.97-2.41-.83-1.69-.42-7.79,1.68-12.27.65-1.38,1.14-1.45,2.02-1.73.23-.07.38-.08.5-.04.17.07.32.31.43.69.12.4.16.9.13,1.48-.08,1.5,1.08,2.75,2.58,2.78.76,0,1.43-.25,1.98-.76.55-.5.87-1.18.91-1.9.07-1.19-.06-2.28-.33-3.27-.23-.84-1.1-2.84-1.96-3.6-1.18-1.05-3.24-1.3-4.92-.76-2.34.75-4.49,2.88-5.93,5.59-1.3,2.43-2.92,9.23-2.89,11.88,0,0,0,.01,0,.02-1.46,5.62-5.48,8.92-7.44,9.53-.78.25-1.56.25-2.02,0-.33-.18-.48-.57-.69-1.13-.58-1.57,2.08-10.05,2.71-12.27.21-.7.12-1.43-.23-2.06s-.94-1.07-1.64-1.24c-1.45-.36-2.87.55-3.39,1.98-1.69,4.62-3,9.83-3.62,14.34-.35,2.56.85,3.89,2.77,4.95,1.02.56,3.54.52,4.81.52.91,0,2.41-.52,3.35-.82,2.88-.91,5.66-3.71,7.6-7.33,1.71,2.76,4.68,3.65,7.29,3.65,1.22,0,2.5-.2,3.8-.62,5.68-1.81,10-7.18,12.18-15.13.4-1.46-.46-2.93-1.92-3.27Z"/>
        <path class="cls-1" d="M144.64,78.38c.38-2.23.68-4.47,1.18-6.71.84-3.8,2-10.53,2.83-14.35l7.5-2.39c.69-.22,1.26-.69,1.6-1.32.35-.63.43-1.35.24-2.03-.2-.68-.65-1.22-1.28-1.55-.62-.32-1.35-.38-2.03-.16l-4.75,1.51c2.68-12.55,3.51-14.22,3.54-14.36.3-1.44-.63-2.81-2.07-3.06-1.45-.24-2.86.72-3.17,2.15l-4.21,17.14-9.84,3.14c-1.41.45-2.23,1.94-1.82,3.34.19.68.65,1.22,1.28,1.54.62.33,1.34.38,2.01.17,0,0,7.11-2.26,7.11-2.26-.45,2.12-.85,4.25-1.27,6.38-.66,3.39-1.3,6.79-1.92,10.19-.23,1.24-.43,2.49-.64,3.74s-.36,2.37-.52,3.57c-.74,5.48,4.5,4.63,5.31-.26.24-1.46.67-2.98.92-4.44Z"/>
        <path class="cls-1" d="M134.77,72.1c-1.05-3.59-5.8-5.3-9.69-4.06-.59.19-1.72.64-2.28.95-.31-.87-.52-1.73-1.48-1.89-1.48-.26-2.94.73-3.25,2.21,0,0-.7,3.31-1.38,6.51-.94,4.4-2.24,8.72-3.93,12.89-.2.49-.37.89-.49,1.16-.65,1.39-2.24,2.15-3.7,1.65-.16-.05-.28-.11-.33-.18-.59-.76-.69-2.26-.28-4.23.13-.59.32-1.53.57-2.71l1.5-7.13c.15-.72,0-1.44-.39-2.03-.4-.59-1.01-.98-1.73-1.11-1.48-.26-2.93.74-3.24,2.22l-.05.25c-.66-.32-1.27-.47-1.72-.54-3.76-.57-8.03,2.25-10.64,7.03-1.01,1.86-2.27,4.46-2.79,7.38,0,0,0,.01,0,.02-.06.13-.11.26-.14.4-.34,1.31-2.24,7.91-6.72,9.34-.99.31-1.4.05-1.73-.24-1.01-.9-1.79-2.89-2.28-5.77,2.36-4.67,5.63-11.27,8.61-19.18l.86-2.26c3.34-10.18,5.9-22.64,4.64-28.31-.38-1.68-2.01-2.49-3.66-2.31-5.6.59-10.72,14.99-14.06,27.71-1.28,4.86-3.02,15.35-2.2,20.28l-.07,1c-1.34,2.72-3.04,5.28-4.77,7.76-1.5,2.16-3.05,5.33-5.82,6.01-1.1.27-2.39.12-3.18-.69-.38-.39-.62-.91-.8-1.43-.82-2.43-.11-4.57.42-6.94.56-2.49,1.11-4.99,1.65-7.48,2.18-.61,13.91-4.01,13.91-4.01,0,0,.12-5.57-.16-5.89-.36-.41-12.39,3.53-12.48,3.98,2.67-12.54,4.99-22.9,5.02-23.05.3-1.44-.63-2.81-2.07-3.06-1.44-.25-2.86.71-3.17,2.15l-5.69,25.83-14.77,4.99c1.94-13.44,5.56-37.21,5.58-37.34.23-1.21-.43-2.28-1.57-2.55-.17-.04-.36-.06-.54-.06-.96,0-1.91.56-2.45,1.44-.49.82-12.73,26.37-20.49,45.56l-.04.11c-6.83,2.74-10.68,4.2-12.14,4.76q-.83.31-.89.36c-1.33.8-1.77,2.84-1.22,3.92.33.75,1.03,1.19,1.89,1.19.32,0,.64-.06.96-.19l3.92-1.48.76-.3q1.35-.52,3.01-1.15l.94-.36c-4.13,9.8-13.16,30.45-17.82,35.54-.95,1.09-.96,2.6,0,3.47.4.33.9.51,1.44.51.3,0,.62-.06.92-.17.49-.19.85-.44,1.15-.82,6.32-5.8,14.76-24.88,20.59-40.92,4.64-1.72,5.79-2.15,10.32-3.86-.79,8.28-1.92,16.97-2.35,20.31-.19,1.44-.2,1.59-.21,1.67-.01,1.25.88,2.17,2.12,2.17.13,0,.28-.01.42-.03,1.22-.2,3.04-1.15,3.07-2.6v-.1s-.05-.09-.05-.09c-.05-.16-.23-1.41.61-10.38.04-.44.99-10.45,1.21-12.69l14.37-4.98-1.04,4.88-1.02,4.39c-1.22,4.9.27,10.27,5.67,11.88,7.93,2.36,12.76-7.05,16.16-12.48.74,2.27,1.75,4.01,3.04,5.17,1.29,1.13,2.84,1.71,4.51,1.71.64,0,1.3-.09,1.98-.24l.49-.15c3.21-1.02,5.52-3.29,7.15-5.71,1.05,1.18,2.32,1.62,3.26,1.79.32.06.64.09.96.09.63,0,1.29-.11,1.99-.33,2.47-.79,4.85-2.93,6.73-6.08,1.05,1.16,3.18,2.2,4.86,2.21,2.54.02,4.57-.79,6.43-2.59,2.9-2.8,4.16-6.82,5.19-10.58.52-1.9,1.07-3.8,1.67-5.68.89-2.75,1.89-4.73,3.66-5.3.17-.05.99-.27,1.76-.17.91.11,1.47.65,1.59,1.07.36,1.22.03,3.13-.39,5.12-.38,1.8-1.11,5.22-1.5,7.02-.31,1.44-.74,2.46.15,3.78.58.86,1.74,1.11,2.79.97,2.05-.28,2.53-3.04,2.92-5.29.23-1.3.71-4.23,1-5.53.55-2.61,1.18-5.57.45-8.08ZM36.9,82.75c-.49,3.71-1,7.54-1.25,8.4l-3.27,1.22-4.63,1.68,2.82-7.43.51-1.27c4.54-12.08,8.97-19.91,9.54-20.91-.58,3.67-3.26,14.81-3.72,18.31ZM77.45,85.22c.07-4.78,1.43-10.73,2.31-14.49,2.07-8.87,5.79-19.39,8.67-22.72.85,5.68-2.96,17.81-4.94,23.2l-.87,2.28c-1.57,4.17-3.86,8.67-5.17,11.74ZM102.88,83.32c-.38,1.4-.77,2.72-1.14,3.88-.37,1.16-.72,2.15-1.02,2.86-2.02,4.88-4.61,6.14-5.15,6.04-.21-.06-.79-.93-.82-3.15-.04-2.74,1.22-5.4,2.32-7.42,1.32-2.43,3.01-3.69,4.06-4.02.22-.07.42-.1.59-.1.06,0,.11,0,.16.01.47.07.84.76,1.01,1.85v.04Z"/>
      </g>
      <path class="cls-1" d="M164.89,48.21c-.37.12-.75.17-1.12.17-.49,0-.95-.1-1.37-.3-.76-.36-1.31-1.01-1.54-1.83-.09-.32-.14-.65-.12-.98.02-.65.25-1.3.66-1.87.49-.69,1.21-1.19,2.07-1.47,1.75-.56,3.51.3,3.99,1.97.52,1.79-.6,3.68-2.56,4.3Z"/>
    </g>
  </g>
  <g>
    <path class="cls-1" d="M94.44,141.14l.04-.2c.32-1.24.57-2.46.77-3.64.37-2.28.24-3.86.06-6.04-.01-.16-.03-.32-.05-.48-.52-4.65-3.12-7.32-7.33-7.51-.14,0-.28,0-.42,0-9.31,0-23.58,13.7-30.41,35.83-1.93,6.25-4.43,15.61-3.93,24.65.31,5.75,2.71,10.3,6.55,12.5,1.67.95,3.53,1.43,5.54,1.43,2.24,0,4.64-.6,7.11-1.79,5.16-2.47,9.49-7.44,12.86-14.76.43-.93.42-1.93-.02-2.75-.4-.74-1.09-1.22-1.91-1.34-1.5-.2-3.07.94-3.8,2.72-2.86,7.06-10.18,10.97-14.15,10.97-.17,0-.32,0-.47-.02-1.74-.15-3.08-1.22-3.99-3.17-2.42-5.18-1.66-15.44,2.05-27.44,5.17-16.75,17.56-31.11,24.08-31.11.06,0,.11,0,.16,0,.91.04,1.89.45,2.2,3.19.13,1.2.1,2.56-.12,4.16-.1.77-.24,1.58-.42,2.42-.02.09-.04.2-.08.34-.34,1.35-.59,2.65.2,3.49.53.57,1.45.91,2.46.91.86,0,1.64-.25,2.14-.71.6-.53.75-1.21.85-1.65Z"/>
    <path class="cls-1" d="M104.43,143.38c.39,0,.78-.07,1.18-.2,1.92-.64,3.18-2.47,2.88-4.17-.22-1.24-1.27-2.07-2.6-2.07-.37,0-.74.07-1.12.19-.84.28-1.57.77-2.11,1.43-.68.84-.97,1.84-.81,2.75.23,1.26,1.24,2.07,2.59,2.07Z"/>
    <path class="cls-1" d="M166.99,168.56c-.02-.11-.04-.2-.07-.3-.1-.35-.24-.63-.44-.87-.39-.46-1-.69-1.81-.69-1.33,0-3.08.62-4.13,1-.23.09-.43.15-.57.2-.42.14-1.8.61-3.54,1.2-1.45.49-3.16,1.08-4.79,1.63.96-3.79,1.86-7.63,2.75-11.4.5-2.1,1-4.21,1.5-6.31.12-.48.24-.97.36-1.45.05-.17.07-.35.08-.48.77-2.88,1.63-6.41,2.39-9.54.84-3.48,1.63-6.76,2.18-8.6.29-.97.03-1.65-.24-2.04-.41-.6-1.12-.98-2.02-1.05-1.53-.12-3.15,1.06-3.59,2.62-.71,2.47-1.31,5.14-1.96,8-1.2,5.29-2.43,10.76-4.43,15.12-.88,1.94-2.16,4.33-4.18,5.72-.95.66-3.35,1.6-4.94,1.6-.19,0-.37-.02-.52-.04-.3-.06-.38-.15-.4-.18-1.03-1.66-.38-3.62.59-6.59,0,0,.24-.75.36-1.1.12-.38.3-.86.5-1.37.94-2.43,2.11-5.46.35-7.04-.55-.49-1.27-.68-1.97-.51-1.87.44-3.07,3.07-3.2,3.37-1.84,4.21-2.66,7.04-3.26,11.23-.19,1.31-.02,3.92.95,5.33,1.31,1.92,3.52,2.94,6.38,2.94.94,0,1.74-.11,2.24-.17,1.75-.24,3.48-.79,5.07-1.6-.38,1.56-.73,2.95-1.06,4.22-.11.4-.22.81-.33,1.22l-.14.32-2.41.82c-1.66.57-3.34,1.14-5.01,1.69-3.19,1.07-7.35,2.6-11.17,4.97-5.92,3.66-10.34,8.6-12.79,14.29-2.01,4.69-2.5,9.99-1.33,14.55,1.15,4.45,3.77,7.88,7.21,9.42,1.4.62,2.88.95,4.37.95,2.22,0,4.43-.72,6.38-2.08,3.79-2.67,6.32-6.62,8.09-9.77,5.39-9.57,8.68-20.52,11.35-30.09,4.24-1.43,9.8-3.63,12.49-4.7l1.19-.46c1.4-.54,4-1.55,3.52-3.97ZM141.45,186.66c-.87,2.67-1.73,5.08-2.61,7.39-.46,1.21-.94,2.39-1.41,3.51-.23.56-.48,1.13-.72,1.69-.11.24-.43.93-.46,1.03-.03.04-.05.09-.06.12l-.11.23c-1.06,2.26-2.09,4.22-3.16,5.96-.56.91-1.09,1.72-1.65,2.49-.2.28-.41.55-.62.82l-.2.27-.15.18c-.16.19-.31.36-.47.54-.6.67-1.18,1.23-1.77,1.73-.06.05-.13.11-.2.16-.08.07-.17.14-.24.19l-.05.04c-.31.2-.63.42-.97.61-.13.07-.27.14-.41.2-.06.03-.11.06-.16.07-.28.1-.54.2-.81.26-.09.02-.18.04-.26.06l-.16.04s-.19,0-.27.01c-.16,0-.32.02-.49.02-.06,0-.11,0-.17,0-.07,0-.14-.01-.22-.02h-.09s-.18-.04-.18-.04c-.31-.07-.63-.15-.95-.27,0,0-.17-.06-.22-.08,0,0-.3-.14-.37-.18-.34-.18-.67-.37-.96-.58l-.12-.09c-.07-.06-.14-.12-.21-.18-.05-.04-.1-.09-.15-.14-.3-.28-.57-.59-.84-.9,0,0-.09-.11-.11-.14l-.11-.16c-.05-.07-.11-.15-.16-.23-.23-.36-.45-.75-.66-1.16-.08-.17-.16-.34-.24-.51l-.11-.27c-.14-.37-.29-.82-.42-1.28-.12-.43-.22-.88-.3-1.35-.04-.21-.08-.42-.11-.64,0-.06-.02-.21-.04-.35l-.02-.21c-.07-1.08-.08-1.99-.02-2.85.03-.45.09-.94.17-1.58,0-.04.08-.44.08-.44.07-.31.13-.62.21-.92.27-1.1.64-2.2,1.09-3.27.01-.03.24-.54.24-.54.11-.24.23-.47.35-.7.3-.58.63-1.16.98-1.71.34-.54.71-1.08,1.1-1.61.16-.22.33-.43.48-.62l.22-.27c.12-.14.25-.28.37-.43.94-1.06,1.99-2.08,3.12-3.02,2.27-1.9,5.34-3.74,8.64-5.17,2.09-.91,4.32-1.64,6.47-2.34.81-.27,1.62-.53,2.43-.8l.57-.19c-.8,2.76-1.57,5.26-2.34,7.62Z"/>
    <path class="cls-1" d="M129.02,167.46c.69-.98.6-2.35-.23-3.21-1.13-1.17-2.99-1.01-3.91.25-1.77,2.42-5.23,4.59-7.06,1.95-.81-1.17.37-4.42,1.69-9.59.68-2.65,1.9-7.06,2.81-9.96l13.8-4.42c1.56-.52,2.73-2.38,2.45-3.9-.25-1.35-1.72-2.17-3-2.17-.34,0-.67.05-.97.15l-10.1,3.29,7.9-25.15c.25-.8.16-1.63-.24-2.29-.39-.63-1.03-1.04-1.79-1.16-1.56-.24-3.16.84-3.66,2.37l-8.98,28.39-5.66,1.84c-2.23.73-2.93,2.68-2.65,4.28.2,1.11,1.29,1.84,2.77,1.84.45,0,.89-.07,1.29-.2l2.1-.67c-.59,1.84-1.49,4.72-2.04,6.78-1.18,4.42-4.49,10.86-4.81,11.49-.09.18-.16.31-.21.37-1.86,2.68-3.98,7.95-8.15,6.53-.39-.13-.76-.33-1.03-.63-.34-.38-.56-.86-.72-1.35-.33-.97-.28-1.87-.08-2.75.17-1.41,1.9-6.32,2.1-7.03.51-1.79,1.04-3.6,1.73-5.34.31-.79.29-1.65-.07-2.34-.33-.66-.93-1.11-1.67-1.28-.21-.05-.43-.07-.65-.07-1.34,0-2.64.91-3.15,2.2-.97,2.22-3.1,9.54-3.78,11.92-.14.49-.28.99-.38,1.49-.89,4.69.52,10.46,5.83,11.14,7.31.94,11.5-3.71,14.9-10.03,0,0,1.24,1.81,2.26,2.43,2.4,1.48,8.11,2.28,13.35-5.16Z"/>
  </g>
</svg>